<svg xmlns="http://www.w3.org/2000/svg" viewBox="0 0 64 64" role="img" aria-label="Atrium">
  <g fill="#2F3A45">
    <path d="M32 4 L46 12 L40 22 L32 18 L24 22 L18 12 Z"/>
    <path d="M46 12 L58 24 L50 32 L40 22 Z"/>
    <path d="M58 24 L58 40 L46 48 L40 42 L50 32 Z"/>
    <path d="M46 48 L32 60 L18 48 L24 42 L32 48 L40 42 Z"/>
    <path d="M18 48 L6 40 L6 24 L14 32 L24 42 Z"/>
    <path d="M6 24 L18 12 L24 22 L14 32 Z"/>
  </g>
  <g fill="none" stroke="#3ECFCF" stroke-width="1.6" stroke-linecap="round" stroke-linejoin="round">
    <path d="M28 20 L32 18 L36 20"/>
    <path d="M40 24 L44 28"/>
    <path d="M44 36 L40 40"/>
    <path d="M36 44 L32 46 L28 44"/>
    <path d="M24 40 L20 36"/>
    <path d="M20 28 L24 24"/>
    <path d="M32 24 L38 28 L38 36 L32 40 L26 36 L26 28 Z"/>
  </g>
</svg>
