<svg xmlns="http://www.w3.org/2000/svg" viewBox="0 0 64 64" role="img" aria-label="Atrium">
  <rect width="64" height="64" rx="14" fill="#0F172A"/>
  <g fill="#E8EEF2">
    <path d="M32 8 L44 15 L39 24 L32 20 L25 24 L20 15 Z"/>
    <path d="M44 15 L54 26 L47 33 L39 24 Z"/>
    <path d="M54 26 L54 40 L44 49 L39 42 L47 33 Z"/>
    <path d="M44 49 L32 56 L20 49 L25 42 L32 48 L39 42 Z"/>
    <path d="M20 49 L10 40 L10 26 L17 33 L25 42 Z"/>
    <path d="M10 26 L20 15 L25 24 L17 33 Z"/>
  </g>
  <g fill="none" stroke="#3ECFCF" stroke-width="1.8" stroke-linecap="round" stroke-linejoin="round">
    <path d="M28 22 L32 20 L36 22"/>
    <path d="M40 26 L43 30"/>
    <path d="M43 34 L40 38"/>
    <path d="M36 42 L32 44 L28 42"/>
    <path d="M24 38 L21 34"/>
    <path d="M21 30 L24 26"/>
    <path d="M32 26 L37 29 L37 35 L32 38 L27 35 L27 29 Z"/>
  </g>
</svg>
